<?xml version="1.0" encoding="utf-8"?>
<!-- Generator: Adobe Illustrator 18.1.1, SVG Export Plug-In . SVG Version: 6.00 Build 0)  -->
<svg version="1.1" id="Layer_1" xmlns="http://www.w3.org/2000/svg" xmlns:xlink="http://www.w3.org/1999/xlink" x="0px" y="0px"
	 viewBox="0 0 340.2 141.7" enable-background="new 0 0 340.2 141.7" xml:space="preserve">
<g id="XMLID_39_">
	<path id="XMLID_38_" fill="#FFFFFF" d="M2,74.9c0.7-0.2,1.5-0.3,2.2-0.4c0.7-0.1,1.6-0.1,2.5-0.1c0.9,0,1.7,0,2.4,0.1
		c0.7,0.1,1.4,0.2,2.2,0.4c0.2,0.3,0.3,0.7,0.4,1.2c0.1,0.5,0.3,1,0.4,1.6c0.1,0.6,0.2,1.1,0.3,1.6c0.1,0.5,0.1,1,0.2,1.4
		c0.4-0.8,1-1.6,1.7-2.4c0.7-0.8,1.5-1.5,2.5-2.2c1-0.6,2-1.2,3.2-1.6c1.2-0.4,2.5-0.6,4-0.6c6.5,0,10.6,2.5,12.4,7.4
		c1.1-2,2.6-3.7,4.5-5.2c1.9-1.5,4.4-2.2,7.4-2.2c4.7,0,8.2,1.3,10.4,3.9c2.2,2.6,3.3,6.6,3.3,12.1v26.3c-1.9,0.3-3.8,0.5-5.7,0.5
		c-1.9,0-3.8-0.2-5.7-0.5V93c0-2.9-0.4-5.1-1.1-6.6c-0.7-1.5-2.2-2.3-4.4-2.3c-0.9,0-1.8,0.1-2.7,0.4c-0.9,0.3-1.7,0.8-2.4,1.5
		c-0.7,0.7-1.3,1.7-1.8,3c-0.5,1.3-0.7,3-0.7,5.1v22.3c-1.9,0.3-3.8,0.5-5.7,0.5c-1.9,0-3.8-0.2-5.7-0.5V93c0-2.9-0.4-5.1-1.1-6.6
		c-0.7-1.5-2.2-2.3-4.4-2.3c-0.9,0-1.8,0.1-2.7,0.4c-0.9,0.3-1.7,0.8-2.4,1.6c-0.7,0.8-1.3,1.9-1.7,3.2c-0.4,1.4-0.6,3.2-0.6,5.4
		v21.7c-1.9,0.3-3.8,0.5-5.7,0.5c-1.9,0-3.8-0.2-5.7-0.5V74.9z"/>
	<path id="XMLID_81_" fill="#FFFFFF" d="M89.9,117.3c-3.4,0-6.3-0.5-8.8-1.6c-2.5-1.1-4.5-2.6-6.2-4.6c-1.6-1.9-2.9-4.2-3.7-6.8
		c-0.8-2.6-1.2-5.4-1.2-8.5c0-3,0.4-5.9,1.2-8.6c0.8-2.7,2.1-5,3.7-6.9c1.6-1.9,3.7-3.5,6.2-4.6c2.5-1.1,5.4-1.7,8.8-1.7
		c3.4,0,6.3,0.6,8.8,1.7c2.5,1.1,4.6,2.7,6.2,4.6c1.7,2,2.9,4.3,3.7,6.9c0.8,2.7,1.2,5.5,1.2,8.6c0,3-0.4,5.9-1.2,8.5
		c-0.8,2.6-2,4.9-3.7,6.8c-1.7,1.9-3.7,3.5-6.2,4.6C96.2,116.7,93.3,117.3,89.9,117.3 M89.9,108.6c3,0,5.1-1.1,6.4-3.3
		c1.3-2.2,2-5.4,2-9.6c0-4.2-0.7-7.4-2-9.6c-1.3-2.2-3.5-3.3-6.4-3.3c-2.9,0-5.1,1.1-6.4,3.3c-1.3,2.2-2,5.4-2,9.6
		c0,4.2,0.7,7.4,2,9.6C84.9,107.5,87,108.6,89.9,108.6"/>
	<path id="XMLID_35_" fill="#FFFFFF" d="M114.9,74.9c0.8-0.2,1.6-0.3,2.3-0.4c0.7-0.1,1.5-0.1,2.4-0.1c0.8,0,1.6,0.1,2.4,0.2
		c0.8,0.1,1.5,0.2,2.3,0.4c0.2,0.3,0.3,0.7,0.4,1.2c0.1,0.5,0.3,1,0.4,1.6c0.1,0.6,0.2,1.1,0.3,1.7c0.1,0.6,0.1,1,0.2,1.4
		c1.2-1.7,2.6-3.1,4.3-4.4c1.7-1.3,3.8-2,6.4-2c0.5,0,1.1,0,1.8,0.1c0.7,0.1,1.2,0.1,1.5,0.2c0.1,0.5,0.2,1.1,0.2,1.8
		c0.1,0.7,0.1,1.4,0.1,2.2c0,0.9,0,1.9-0.1,3c-0.1,1.1-0.2,2.1-0.4,3c-0.6-0.1-1.2-0.2-2-0.2H136c-0.9,0-1.9,0.1-3,0.3
		c-1.1,0.2-2.2,0.7-3.2,1.5c-1,0.8-1.9,2-2.5,3.6c-0.7,1.6-1,3.8-1,6.7v19.7c-1,0.2-1.9,0.3-2.9,0.3c-1,0.1-1.9,0.1-2.8,0.1
		c-0.9,0-1.8,0-2.8-0.1c-0.9-0.1-1.9-0.2-2.9-0.3V74.9z"/>
	<path id="XMLID_34_" fill="#FFFFFF" d="M169,75.4c0.7-0.2,1.5-0.3,2.2-0.4c0.7-0.1,1.6-0.1,2.5-0.1c0.9,0,1.7,0,2.4,0.1
		c0.7,0.1,1.4,0.2,2.2,0.4c0.2,0.3,0.3,0.7,0.4,1.2c0.1,0.5,0.3,1,0.4,1.6c0.1,0.6,0.2,1.1,0.3,1.6c0.1,0.5,0.1,1,0.2,1.4
		c0.5-0.8,1.2-1.6,1.9-2.4c0.7-0.8,1.6-1.5,2.6-2.2c1-0.6,2.1-1.2,3.3-1.6c1.2-0.4,2.6-0.6,4.1-0.6c4.7,0,8.2,1.3,10.6,3.8
		c2.4,2.6,3.6,6.6,3.6,12.1v26.4c-1.9,0.3-3.8,0.5-5.7,0.5c-1.9,0-3.8-0.2-5.7-0.5V93.4c0-2.9-0.4-5.1-1.3-6.6
		c-0.9-1.5-2.4-2.3-4.6-2.3c-0.9,0-1.8,0.1-2.8,0.4c-1,0.3-1.8,0.8-2.6,1.6c-0.8,0.8-1.4,1.9-1.9,3.2c-0.5,1.4-0.7,3.2-0.7,5.4v21.7
		c-1.9,0.3-3.8,0.5-5.7,0.5c-1.9,0-3.8-0.2-5.7-0.5V75.4z"/>
	<path id="XMLID_75_" fill="#FFFFFF" d="M236.7,112.9c4.9,0.1,8.4,1.2,10.7,3.2c2.3,2.1,3.4,5,3.4,8.8c0,2.2-0.6,4.3-1.8,6.1
		c-1.2,1.8-2.8,3.4-4.8,4.7c-2,1.3-4.4,2.3-7.2,3c-2.8,0.7-5.8,1-9,1c-3.2,0-5.9-0.3-8.2-0.8c-2.2-0.5-4.1-1.2-5.5-2.1
		c-1.4-0.9-2.4-2-3-3.4c-0.6-1.3-0.9-2.8-0.9-4.4c0-2.4,0.6-4.4,1.7-5.9c1.1-1.5,2.7-2.9,4.6-4.1c-1.2-0.7-2.2-1.7-2.9-2.8
		c-0.7-1.1-1.1-2.5-1.1-4.2c0-2,0.4-3.7,1.3-5c0.9-1.3,2.1-2.5,3.8-3.7c-1.9-1.3-3.3-3-4.3-4.9c-1-1.9-1.5-4.1-1.5-6.4
		c0-2.1,0.4-4,1.2-5.8c0.8-1.8,2-3.3,3.5-4.6c1.5-1.3,3.4-2.3,5.6-3.1c2.2-0.7,4.6-1.1,7.4-1.1c2.7,0,5.1,0.4,7.4,1.2
		c2.2,0.8,4.1,1.9,5.6,3.2c1-1.3,2.3-2.3,3.8-3c1.5-0.7,3.5-1,6.1-1c0.1,0.7,0.2,1.4,0.3,2c0.1,0.7,0.1,1.4,0.1,2.1
		c0,0.9,0,1.7-0.1,2.6c-0.1,0.8-0.2,1.7-0.3,2.6h-6.5c0.3,0.5,0.5,1.2,0.7,1.9c0.2,0.7,0.3,1.7,0.3,3c0,2.1-0.4,4-1.2,5.8
		c-0.8,1.8-1.9,3.3-3.4,4.6c-1.5,1.3-3.3,2.3-5.5,3c-2.2,0.7-4.6,1.1-7.3,1.1c-2.3,0-4.4-0.2-6.2-0.7c-0.9,0.6-1.5,1.2-1.7,1.9
		c-0.2,0.7-0.3,1.3-0.3,1.9c0,0.9,0.3,1.6,0.8,2.1c0.6,0.5,1.7,0.8,3.4,0.9L236.7,112.9z M226.4,121.2c-1.2-0.1-2.1,0.1-2.9,0.4
		c-0.8,0.3-1.4,0.7-1.8,1.2c-0.5,0.5-0.8,1.1-1,1.7c-0.2,0.6-0.3,1.2-0.3,1.8c0,2,0.8,3.4,2.3,4.1c1.5,0.7,3.6,1.1,6.1,1.1
		c3.4,0,6.1-0.5,8.1-1.6c2.1-1.1,3.1-2.5,3.1-4.3c0-0.5-0.1-1-0.2-1.5c-0.1-0.5-0.4-0.9-0.8-1.3c-0.4-0.4-0.9-0.7-1.6-1
		c-0.7-0.3-1.6-0.4-2.7-0.4L226.4,121.2z M229.7,99.3c2.2,0,3.9-0.6,4.8-1.9c1-1.3,1.5-3,1.5-5.3c0-2.2-0.5-4-1.5-5.3
		c-1-1.3-2.6-2-4.8-2c-2.3,0-4,0.7-5,2c-1,1.3-1.5,3.1-1.5,5.3c0,2.2,0.5,4,1.5,5.3C225.7,98.7,227.4,99.3,229.7,99.3"/>
	<path id="XMLID_72_" fill="#FFFFFF" d="M279.5,90.4c0-1.3-0.2-2.3-0.6-3.1c-0.4-0.8-1-1.4-1.8-1.9c-0.7-0.4-1.7-0.8-2.8-0.9
		c-1.1-0.2-2.3-0.2-3.6-0.2c-2.9,0-6,0.6-9.2,1.7c-0.7-1.4-1.3-2.7-1.7-3.9c-0.4-1.2-0.6-2.7-0.6-4.4c2.4-0.8,4.7-1.4,7-1.8
		c2.3-0.4,4.5-0.6,6.6-0.6c5.6,0,9.9,1.3,13,4c3.1,2.7,4.7,6.9,4.7,12.8v24c-1.9,0.6-4.1,1.2-6.8,1.7c-2.7,0.5-5.7,0.8-9,0.8
		c-2.7,0-5.2-0.2-7.5-0.7c-2.3-0.5-4.2-1.3-5.8-2.4c-1.6-1.1-2.9-2.6-3.8-4.3c-0.9-1.8-1.3-3.9-1.3-6.5c0-2.6,0.5-4.7,1.6-6.4
		c1.1-1.7,2.5-3.1,4.2-4.2c1.7-1,3.7-1.8,5.8-2.2c2.1-0.5,4.3-0.7,6.4-0.7c1.5,0,3.3,0.1,5.1,0.2V90.4z M279.5,98.6
		c-0.6-0.1-1.3-0.2-2.1-0.3c-0.7-0.1-1.4-0.1-2-0.1c-2.6,0-4.7,0.5-6.2,1.4c-1.5,0.9-2.3,2.4-2.3,4.5c0,1.4,0.3,2.5,0.9,3.2
		c0.6,0.7,1.3,1.3,2.1,1.6c0.8,0.3,1.7,0.6,2.6,0.6c0.9,0.1,1.7,0.1,2.4,0.1c0.8,0,1.6-0.1,2.4-0.2c0.8-0.1,1.5-0.3,2.1-0.4V98.6z"
		/>
	<path id="XMLID_28_" fill="#FFFFFF" d="M146.9,74.1c0,0-2.3,32.1-3.1,35.7c-0.9,3.6-2.4,6.9-2.4,6.9v1.9h20.1
		c0,0-4.6-22.5-4.6-31.3c0-8.8-0.2-11-0.2-11s8.2-3.3,11.3-9.4c3.1-6.2,3.1-11.2,3.1-11.2s-1.2-1.2-3.6,3.3
		c-2.4,4.5-5.3,7.9-8.6,9.4c-3.3,1.5-6.7-22.2-6.7-22.2l-3.3,21.3c0,0-6.4-7.7-6.5-9.6c-0.2-1.9,0,5.5,0,5.5V65l-4.1-0.5
		C138.3,64.4,146.2,69.6,146.9,74.1"/>
	<path id="XMLID_27_" fill="#FFFFFF" d="M120.1,45.7c-0.1,1.3-3.3,2.1-7,1.8c-3.8-0.3-6.8-1.6-6.7-2.9c0.1-1.3,3.3-2.1,7-1.8
		C117.3,43.1,120.2,44.4,120.1,45.7"/>
	<path id="XMLID_26_" fill="#FFFFFF" d="M121.1,56.7c0.8,1-0.9,3.7-3.8,6.2c-2.9,2.4-5.9,3.6-6.8,2.6c-0.8-1,0.9-3.7,3.8-6.2
		C117.3,56.9,120.3,55.7,121.1,56.7"/>
	<path id="XMLID_25_" fill="#FFFFFF" d="M119.5,34.8c-0.3,1.2-3.5,1.5-7.2,0.6c-3.7-0.9-6.4-2.7-6.1-3.9c0.3-1.2,3.5-1.5,7.2-0.6
		C117.1,31.8,119.8,33.6,119.5,34.8"/>
	<path id="XMLID_24_" fill="#FFFFFF" d="M124.6,24.6c-1,0.8-4.2-1.4-7.2-4.9c-3-3.5-4.6-7-3.6-7.9c1-0.8,4.2,1.4,7.2,4.9
		C123.9,20.2,125.6,23.8,124.6,24.6"/>
	<path id="XMLID_23_" fill="#FFFFFF" d="M131.7,42.4c-1,0.8-3.7-0.8-6.1-3.6c-2.4-2.8-3.5-5.8-2.6-6.6c1-0.8,3.7,0.8,6.1,3.6
		C131.5,38.6,132.7,41.6,131.7,42.4"/>
	<path id="XMLID_22_" fill="#FFFFFF" d="M135.4,34c-1.3,0-2.2-3.8-2-8.3c0.2-4.6,1.3-8.2,2.6-8.2c1.3,0,2.2,3.8,2,8.4
		C137.8,30.4,136.7,34.1,135.4,34"/>
	<path id="XMLID_21_" fill="#FFFFFF" d="M147.3,20c-1.5,0-2.7-4-2.7-9c0-5,1.2-9,2.6-9c1.5,0,2.7,4,2.7,9
		C149.9,15.9,148.7,20,147.3,20"/>
	<path id="XMLID_20_" fill="#FFFFFF" d="M163.2,23.2c-1.2-0.8,0.1-4.8,2.9-8.9c2.8-4.1,6-6.7,7.2-5.9c1.2,0.8-0.1,4.8-2.9,8.9
		C167.7,21.4,164.5,24,163.2,23.2"/>
	<path id="XMLID_19_" fill="#FFFFFF" d="M174.8,31.8c-1.3-0.7-0.8-4,1-7.3c1.8-3.3,4.4-5.5,5.7-4.8c1.3,0.7,0.8,4-1,7.3
		C178.6,30.4,176.1,32.5,174.8,31.8"/>
	<path id="XMLID_18_" fill="#FFFFFF" d="M176.9,48.6c-1.3-0.7-0.8-4,1-7.3c1.8-3.3,4.4-5.5,5.7-4.8c1.3,0.7,0.8,4-1,7.3
		C180.7,47.2,178.2,49.4,176.9,48.6"/>
	<path id="XMLID_17_" fill="#FFFFFF" d="M187.3,44.1c0.1-1.5,3.2-2.5,7-2.4c3.8,0.2,6.8,1.5,6.8,2.9c-0.1,1.5-3.2,2.5-7,2.4
		C190.3,46.9,187.2,45.6,187.3,44.1"/>
	<path id="XMLID_16_" fill="#FFFFFF" d="M177.4,56.5c0.1-1.5,3.2-2.5,7-2.4c3.8,0.2,6.8,1.5,6.8,2.9c-0.1,1.5-3.2,2.5-7,2.4
		C180.4,59.2,177.3,57.9,177.4,56.5"/>
	<path id="XMLID_15_" fill="#FFFFFF" d="M154.7,28.7c-1.1-0.2-1.5-3.7-0.9-7.8c0.6-4.1,2.1-7.3,3.2-7.1c1.1,0.2,1.5,3.7,0.9,7.8
		C157.3,25.7,155.8,28.9,154.7,28.7"/>
	<path id="XMLID_14_" fill="#FFFFFF" d="M150.4,36.7c-1,0.6-3.3-1.4-5.2-4.5c-1.9-3.1-2.6-6.1-1.6-6.7c1-0.6,3.3,1.4,5.2,4.5
		C150.7,33.1,151.4,36.1,150.4,36.7"/>
	<path id="XMLID_13_" fill="#FFFFFF" d="M141.3,46.5c-1.2,0-2-2.4-1.9-5.3c0.1-2.9,1.1-5.1,2.3-5.1c1.2,0,2,2.4,1.9,5.3
		C143.5,44.2,142.5,46.5,141.3,46.5"/>
	<path id="XMLID_12_" fill="#FFFFFF" d="M124.8,53.3c0.2-1.1,2.6-1.7,5.4-1.3c2.8,0.4,5,1.7,4.8,2.9c-0.2,1.1-2.6,1.7-5.4,1.3
		C126.8,55.7,124.7,54.4,124.8,53.3"/>
	<path id="XMLID_11_" fill="#FFFFFF" d="M125.7,71c-0.7-1,0.7-3,3.1-4.7c2.4-1.6,4.8-2.2,5.5-1.2c0.7,1-0.7,3-3.1,4.7
		C128.8,71.4,126.3,71.9,125.7,71"/>
	<path id="XMLID_10_" fill="#FFFFFF" d="M166.7,52c-1.5,0-2.5-3.2-2.4-7c0.1-3.8,1.4-6.8,2.9-6.8c1.5,0,2.5,3.2,2.4,7
		C169.4,49,168.2,52.1,166.7,52"/>
	<path id="XMLID_9_" fill="#FFFFFF" d="M145.6,124.8c-0.5-0.8-1.3-1.1-2.3-1.1c-1.2,0-2.5,0.6-2.5,2.1c0,3.1,6,1.5,6,5.7
		c0,2.1-2,3.4-3.8,3.4c-1.4,0-2.8-0.5-3.7-1.7l1.1-0.8c0.5,0.9,1.4,1.4,2.7,1.4c1.2,0,2.5-0.8,2.5-2.1c0-3.3-6-1.5-6-5.7
		c0-2.3,1.9-3.3,3.8-3.3c1.3,0,2.4,0.4,3.3,1.4L145.6,124.8z"/>
	<path id="XMLID_8_" fill="#FFFFFF" d="M158.9,132.7c-0.8,1.2-2.4,2.1-4.3,2.1c-3.5,0-6.1-2.6-6.1-6.1c0-3.5,2.6-6.1,6.1-6.1
		c1.4,0,3,0.5,4,1.8l-1,0.8c-0.5-0.8-1.8-1.5-3-1.5c-3,0-4.8,2.4-4.8,5c0,2.7,1.8,5,4.8,5c1.2,0,2.5-0.4,3.3-1.7L158.9,132.7z"/>
	<polygon id="XMLID_7_" fill="#FFFFFF" points="160.9,122.9 162,122.9 162,127.9 168.4,127.9 168.4,122.9 169.6,122.9 169.6,134.5 
		168.4,134.5 168.4,129 162,129 162,134.5 160.9,134.5 	"/>
	<path id="XMLID_47_" fill="#FFFFFF" d="M178.1,134.8c-3.5,0-6.1-2.6-6.1-6.1c0-3.5,2.6-6.1,6.1-6.1c3.5,0,6.1,2.6,6.1,6.1
		C184.1,132.2,181.5,134.8,178.1,134.8 M178.1,123.6c-3,0-4.8,2.4-4.8,5c0,2.7,1.8,5,4.8,5c3,0,4.8-2.4,4.8-5
		C182.9,126,181.1,123.6,178.1,123.6"/>
	<path id="XMLID_44_" fill="#FFFFFF" d="M191.8,134.8c-3.5,0-6.1-2.6-6.1-6.1c0-3.5,2.6-6.1,6.1-6.1c3.5,0,6.1,2.6,6.1,6.1
		C197.9,132.2,195.3,134.8,191.8,134.8 M191.8,123.6c-3,0-4.8,2.4-4.8,5c0,2.7,1.8,5,4.8,5c3,0,4.8-2.4,4.8-5
		C196.6,126,194.8,123.6,191.8,123.6"/>
	<polygon id="XMLID_2_" fill="#FFFFFF" points="201.5,133.4 206.9,133.4 206.9,134.5 200.3,134.5 200.3,122.9 201.5,122.9 	"/>
	<rect id="XMLID_1_" x="3.3" y="127.3" fill="#FFFFFF" width="131.8" height="1.4"/>
</g>
</svg>
