<?xml version="1.0" standalone="no"?>
<!DOCTYPE svg PUBLIC "-//W3C//DTD SVG 20010904//EN"
 "http://www.w3.org/TR/2001/REC-SVG-20010904/DTD/svg10.dtd">
<svg version="1.0" xmlns="http://www.w3.org/2000/svg"
 width="280.000000pt" height="280.000000pt" viewBox="0 0 280.000000 280.000000"
 preserveAspectRatio="xMidYMid meet">
<g transform="translate(0.000000,280.000000) scale(0.100000,-0.100000)"
fill="#000000" stroke="none">
<path d="M0 2364 c0 -239 4 -443 9 -452 4 -9 11 -32 14 -49 5 -25 3 -33 -8
-33 -13 0 -15 -68 -15 -520 l0 -520 38 -2 c61 -2 66 -3 80 -12 8 -5 20 -2 31
8 10 9 23 16 30 16 6 0 23 7 36 16 41 27 168 1 178 -35 5 -21 48 -32 72 -19
22 13 90 0 108 -20 7 -9 20 -51 27 -92 21 -126 94 -273 182 -365 20 -22 49
-63 64 -92 14 -29 35 -55 45 -58 10 -4 19 -10 19 -15 0 -5 15 -12 32 -16 33
-7 60 -32 52 -46 -3 -5 7 -8 23 -8 28 1 67 22 57 32 -3 3 6 18 20 33 15 16 26
35 26 44 0 10 3 12 8 6 11 -17 55 -16 74 2 21 19 37 10 20 -10 -15 -17 -6 -27
25 -27 18 0 23 -5 23 -25 0 -14 5 -25 10 -25 6 0 10 -9 10 -20 0 -13 7 -20 19
-20 10 0 21 -6 24 -14 8 -20 94 -32 129 -18 20 7 26 7 22 0 -5 -8 22 -9 87 -4
52 4 95 12 97 17 2 5 9 9 16 9 7 0 23 9 36 20 13 11 29 20 36 20 8 0 27 14 43
30 16 17 42 33 58 36 15 3 38 14 49 25 12 11 30 22 40 24 11 1 18 8 17 13 -2
6 4 9 11 6 29 -11 55 15 62 61 7 49 7 49 32 36 24 -13 89 -41 95 -41 2 0 12
20 21 45 l18 45 91 -4 c58 -2 103 1 122 9 50 21 92 69 100 114 4 24 12 41 20
41 8 0 21 8 30 17 14 13 20 14 34 4 9 -6 24 -14 34 -17 9 -4 17 -10 17 -15 0
-5 6 -9 14 -9 7 0 35 -9 60 -21 26 -11 54 -18 62 -15 12 5 14 171 14 1176 l0
1170 -1400 0 -1400 0 0 -436z m856 -1126 c-3 -13 -9 -52 -12 -88 -6 -60 -4
-67 20 -93 14 -15 39 -30 56 -34 37 -7 35 -23 -4 -36 -22 -7 -38 -5 -75 14
-25 12 -52 30 -59 38 -25 32 -42 85 -42 133 0 66 20 86 89 87 30 1 33 -1 27
-21z m1022 -64 c56 -18 78 -47 69 -91 -17 -87 -31 -125 -60 -158 -27 -31 -42
-39 -85 -46 -60 -9 -89 -1 -139 37 -44 34 -44 54 1 47 46 -7 103 13 124 45 11
18 17 49 18 101 1 42 2 77 3 79 2 5 21 1 69 -14z"/>
</g>
</svg>
